<?xml version="1.0" encoding="utf-8"?>
<!-- Generator: Adobe Illustrator 25.0.1, SVG Export Plug-In . SVG Version: 6.00 Build 0)  -->
<svg version="1.1" id="Layer_1" xmlns="http://www.w3.org/2000/svg" xmlns:xlink="http://www.w3.org/1999/xlink" x="0px" y="0px"
	 viewBox="0 0 765.9 808" style="enable-background:new 0 0 765.9 808;" xml:space="preserve">
<style type="text/css">
	.st0{fill:#94C93D;}
	.st1{fill:#7D8736;}
</style>
<path class="st0" d="M239.6,194.5c0.9-0.2,1.8-0.5,2.6-0.9c3.2-1.6,4.6-4.5,5.8-6.7c2-3.6,4.3-7,6.9-10.1l18.9-16.5l28.5-18.9
	l30.2-13l34.3-10.3l43.9-11l45-13l42.2-9.6l27.5-10l20.6-9.3l8-5.1l5.4-4.1l7.5-6.2l7.9-6.9l11-13l7.8-15.3
	c2.3-3.9,7.3-12.6,7.7-13.3c0.4-0.9,1.9-1.2,2.3-1.2c0.9,0.1,1.7,0.4,2.3,1c0.7,0.6,0.6,1.5,0.8,1.9c1.2,2.2,2.1,4.5,2.7,6.9
	c1,3.8,3.7,11.7,4.6,14.4c0.8,2.3,2.9,12.3,6.4,20.7c2.1,5,3.6,12,5.1,18.7c0.7,2.8,1.2,5.6,1.7,8.3c2.2,10.3,4.3,20.6,6.5,30.9
	l2.7,16.5v31.2l-1.4,11.7l-1.7,9.6l-5.8,19.6l-7.9,25.1l-11,24.4l-6.9,12c-0.6,3.2-0.3,6.6,0.9,9.6c0.3,0.8,0.7,1.6,1.2,2.3
	c1,0.5,2.1,0.8,3.2,1c0.9,0.1,1.8,0.1,2.7,0.1c1.7-0.2,6.9-2,8.2-2.4l3.8-1.4l10.3-6.2c3.4-2.6,7.1-4.8,11-6.5l1.1-0.5
	c0.5-0.2,0.8-0.3,1.1-0.3l1.9-0.2c0.8-0.1,1.6-0.1,2.4-0.1c0.9-0.1,1.8,0,2.6,0.1c0.3,0.1,0.6,0.2,0.9,0.3c0.6,0.2,1.1,0.6,1.6,1
	l1.2,2c0.5,0.8,0.9,1.6,1.3,2.5l0.3,0.7c0.4,0.9,0.4,0.9,0.4,0.9c0.2,0.4,0.4,1.2,0.9,2.8c0.1,0.6,0.2,1.2,0.2,1.8
	c0,0.7-0.1,1.5-0.2,2.2c-0.1,0.6-0.2,1.5-0.3,2.5l-0.4,1.1l-3.4,10.5c-1.1,4.1-2.3,8.2-3.4,12.4l-4.8,16.8l-6.9,26.4l-11.7,33.3
	l-9.7,23.4l-8.6,18l-11.3,17.3L587,439l-11.3,13l-22.3,21l-18.5,15.1l-28.8,17.6l-34,18.4l-30.9,15.4l-31.9,12.3l-27.5,12l-23.7,10
	l-14.4,8.5l-3.1,1.8c-0.7,0.4-1.4,0.9-1.9,1.4c-1,0.9-1.7,2.3-1.8,3.7c0,1,0.4,2,1,2.8c0.5,0.5,1.1,0.8,1.8,1.1
	c1,0.4,4.4,0.3,5.4,0.3h8.9c3.8,0.2,7.8,0.2,12.1,0c1.5-0.1,2.9-0.2,4.4-0.3c1.2,0,2.4,0.4,3.4,1c1,0.5,1.7,1.4,2.1,2.5
	c0.2,0.7,0.2,1.3,0,2c0,0.7-0.1,1.4-0.4,2c-0.2,0.5-0.6,1-1,1.4c-1.2,1.9-2.9,3.4-5,4.2c-0.6,0.4-1.2,0.7-1.8,1
	c-1,0.5-2.1,0.9-3.2,1.2l-13,5.1l-12,5.8l-35.3,15.1l-23.7,11.7l-22,12.3l-20.9,13c-4.1,2.9-8.4,6.1-12.9,9.9
	c-4.2,3.5-7.9,7-11.3,10.3l-19.8,23.8c-0.5,0.6-1.1,1.1-1.7,1.5c-0.7,0.4-1.5,0.8-2.4,0.9c-0.9,0.3-1.8,0.5-2.7,0.5
	c-0.7,0-1.4-0.1-2-0.3c-0.4-0.4-0.6-0.9-0.8-1.4c-0.3-0.9-0.3-1.9-0.1-2.8c0.6-2.9,0.6-5.9,1.5-8.7c3.1-9.8,2.5-11.2,6.3-21.7
	c1-2.9,2-5.2,2.6-6.8l20.2-42.5l30.9-45.6l36-40.2l41.5-39.8l45.6-45.3l40.3-40.1l51.8-55.3l22-29.2l14.4-23.7l15.8-26.8l16.8-31.2
	l8.9-24l8.9-27.4l6.5-22l2.4-13.4v-6.5l-0.7-3.8l-3.1-1.7l-3.1,3.8l-2,4.5l-3.4,7.9l-8.2,16.8l-13,21.3l-14.2,22.4l-23.7,32.2
	l-34.3,39.1l-51.1,50.1l-50.4,41.9l-38.1,33.3l-32.6,29.2l-44.3,43.2l-32.9,37.8l-16,17.3L175,573.5L163.6,590
	c-2.4,4.1-4.8,8.3-7.1,12.4l-8.6,15c-2.6,5.5-5.2,11-7.9,16.7c-2.5,5.5-4.9,10.9-7.3,16.3c-2.1,6.2-4.2,12.6-6.2,19.3
	c-2.2,7.3-4.1,14.4-5.8,21.3c-1,6.9-1.8,14.1-2.5,21.6c-0.6,6.5-1,12.9-1.3,19c-0.2,7.5-0.3,15.1-0.3,22.9c0,8.5,0.1,16.8,0.4,24.9
	c1.8,12.1,3,20.9,3.2,22c0.1,0.4,0.1,0.7,0.1,1.1c0,0.6-0.1,1.2-0.2,1.7c-0.1,0.4-0.2,0.8-0.4,1.2c-0.4,0.4-0.8,0.7-1.2,1.1
	c-0.6,0.5-1.2,0.9-1.8,1.2c-1.7,0.3-3.4,0-5-0.6c-2.3-1.1-4.3-2.6-6-4.5l-3.1-6.9L92.6,776l-13.7-26l-26.8-51.5L32.6,649l-16.1-52.2
	L4.8,537.2L1,496c-1.4-14.6-1.3-29.4,0.3-44c0.9-7.9,2.2-15.7,3.9-23.4l5.7-24.6c1-3.9,2.3-7.8,3.7-11.6c1.1-3,2.3-5.7,3.5-8.2
	c0.6-1.3,1.3-2.5,2-3.7c0.6-1,1.3-1.9,2.1-2.8c0.7-1.3,2-2,3.4-2.1c1.7-0.2,3.2,0.8,3.8,2.4c2.3,4.3,4.6,8.7,6.9,13l4.5,9l3.4,4
	l3.5,0.6c1.2,0,2.5-0.2,3.6-0.6c0.4-0.1,0.8-0.2,1.2-0.4c0.5-0.3,0.9-0.8,1.2-1.3c0.5-0.8,0.7-1.7,0.7-2.5c0-0.9,0.1-2.2,0.3-3.8
	c0.4-4.2,0.9-7.7,1.3-9.8c0.2-1.2,0.5-3,1-5.1c2.5-11.3,5-22.7,7.6-34l14.8-47l15.1-31.6l20.9-32.9l25.8-30.9l27.4-25.7l29.5-23
	c4-2.3,18.6-11.7,22-14.1l8.9-4.8l4.1-0.4h4.1l2.1,4.1v5.1l-0.7,6.9l-6.2,29.5v5.8l2.1,3.1l2,1.8L239.6,194.5z"/>
<path class="st1" d="M709.3,71.8c5.2-4.7,9.8-9.9,13.8-15.6c0.9-1.2,1.7-2.5,2.4-3.7c1.1-1,2.8-1,3.9,0c7.2,11.2,12.3,23.7,15,36.7
	c1.3,5,3.1,12.6,4.8,22c1.5,8.3,2.2,14.6,2.6,18c4.1,36.3,6.2,54.4,6.6,67.2c0.7,18.8-0.2,31.9-1.5,54.4
	c-1.6,25.7-3.6,39.1-6.6,51.9c-1.2,5.1-2.5,10-3.9,14.6c-0.9,6.3-2.6,12.5-4.9,18.4c-0.7,1.9-1.8,4.1-3.8,8.5
	c-4.5,9.8-6.5,13-8.7,19.6c-1,3-1.7,5.4-2,6.9c-0.5,0.9-0.7,1.9-0.8,2.9c-0.1,0.9,0,1.8,0.3,2.7c0.2,0.4,0.4,0.7,0.7,1
	c0.6,0.6,1.5,1.1,2.3,1.2c3.8-0.2,7.5-0.9,11.1-2.2c0.6-0.4,1.4-0.9,2.3-1.5c2-1.4,3.8-2.7,5.3-3.8c1.7-1.3,3.7-2.9,5.7-4.7
	c0.7-0.8,1.4-1.6,2.1-2.5c1-2.5,3.8-3.8,6.4-2.8c1.4,0.6,2.5,1.7,3,3.2c1.2,5.8,0.7,11.8-1.4,17.3c-7.5,22.8-17.7,44.5-30.3,64.9
	c-3.1,4.7-6.5,9.5-10.2,14.4s-7.2,9.3-10.7,13.5c-4.3,5.2-9,10.1-14,14.7c-3.7,3.4-7.4,6.4-10.9,9l-27.6,21.5L632,538.7l-49.8,26.9
	c-10.5,4.8-18.7,8.5-24.5,11.1l-75.8,26.7l0,0l-10.5,4.6l-5.4,1.2c-1.7,0.3-3.5-0.3-4.7-1.5c-0.7-0.8-1-1.9-0.9-3
	c0-0.8,0.1-1.5,0.4-2.2c0.2-0.4,0.4-0.7,0.6-1c0.3-0.3,0.6-0.6,1-0.8l9.5-6.8l6.9-5.4c0.4-0.5,0.8-1,1.1-1.5c0.3-0.5,0.6-1,0.8-1.6
	c0.1-0.5,0.1-1,0-1.5c-0.1-0.3-0.1-0.6-0.3-1c-0.1-0.3-0.2-0.7-0.3-1c-0.1-0.3-0.3-0.6-0.5-0.9c-0.2-0.2-0.2-0.3-0.5-0.6
	s-0.4-0.5-0.5-0.7c-0.5-0.5-1.1-0.9-1.8-1.2c-0.4-0.2-0.8-0.4-1.2-0.6c-0.5-0.2-1-0.4-1.4-0.7c-0.8-0.5-1.4-1.3-1.6-2.2
	c-0.5-2.1,1.4-5.4,4.3-6.2c4.6-2.1,29.1-12.5,36.9-15.9l27.3-15.9c4.9-3.4,10-7.3,15.3-11.7c4.8-4,9.3-8,13.3-11.8
	c7.5-6.8,15-14.1,22.6-21.8c2.5-2.5,4.9-5,7.3-7.6c3.9-4.1,7.9-8.5,11.9-13.2c4.5-5.3,8.6-10.5,12.3-15.4c2.9-4.2,5.8-8.6,8.7-13.4
	c4.4-7.2,8.1-14.2,11.2-20.8l24.7-51.8l10.7-28.6l8.1-34l5.8-41.4c0.4-6.1,0.8-12.3,1-18.8c0.2-4.5,0.3-8.9,0.3-13.2
	c0.2-5.6,0.1-10.4,0-14c-0.2-5.8-0.6-10.6-1-15.6c-0.2-3.1-0.5-5.7-0.7-7.5c-0.2-2-0.4-4.1-0.7-6.3c-0.5-3.6-1-7.1-1.7-10.4
	c-0.2-1.1-0.8-2.1-1.8-2.7c-0.8-0.5-1.7-0.7-2.7-0.6l-5.6,4.7c-2.6,1.5-6,1.1-8.1-1.1c0-1.3-0.1-35.9-0.1-37.2
	c0-1.6-0.1-39.8-0.1-41.4L686.8,91c2.3-1.3,4.5-2.8,6.6-4.3c1.6-1.2,3.1-2.3,4.4-3.5s3.1-2.7,5.2-4.8
	C705.3,76.1,706.4,74.4,709.3,71.8z"/>
<path class="st1" d="M224.9,748.3c3.4-2.5,7.2-5.1,11.4-7.7c2.5-1.5,5-2.9,7.4-4.1c4.8-2.6,9.7-5.3,14.6-8c5.8-3.2,5.9-3.4,11.4-6.4
	s10-5.5,12.9-7c2.1-1,5.2-2.3,8.9-3.8c7.5-3,13.1-4.8,17.8-6.4c5.9-1.9,14.3-4.8,25.4-8.6c26.5-7.7,44-11.9,55.3-14.4
	c7.8-1.7,15.5-3.8,23.1-6.4c7.5-2.6,14.9-5.8,22-9.4c1.1-0.6,1.7-1.8,1.8-3c0-1.6-1-3-2.5-3.5c-11.1-2.5-22-5.6-32.7-9.2
	c-5.7-2.1-11.5-3.5-17.5-4.1c-4.8-0.4-9.7-0.3-14.5,0.3c-7.1,1.7-13.9,4.1-20.5,7.2c-5.2,2.5-43.4,21.6-49.5,24.8
	c-7.8,4.2-15.5,8.5-22.9,12.7c-6.4,4-13.1,8.5-20,13.5c-6.7,4.9-12.9,9.8-18.6,14.5c-1.5,1.5-3,3-4.5,4.7c-1.8,1.9-3.5,3.7-5.1,5.6
	c-2,2.7-3.9,5.6-5.4,8.6c-1,2-2,4-2.8,6.1c-0.8,1.6-0.2,3.5,1.4,4.3C222.7,749,223.9,749,224.9,748.3L224.9,748.3z"/>
</svg>
